<?xml version="1.0" standalone="no"?>
<!DOCTYPE svg PUBLIC "-//W3C//DTD SVG 20010904//EN"
 "http://www.w3.org/TR/2001/REC-SVG-20010904/DTD/svg10.dtd">
<svg version="1.0" xmlns="http://www.w3.org/2000/svg"
 width="160.000000pt" height="160.000000pt" viewBox="0 0 160.000000 160.000000"
 preserveAspectRatio="xMidYMid meet">
<metadata>
Created by potrace 1.14, written by Peter Selinger 2001-2017
</metadata>
<g transform="translate(0.000000,160.000000) scale(0.100000,-0.100000)"
fill="#000000" stroke="none">
<path d="M208 1315 c-2 -3 -18 -5 -36 -7 -23 -2 -32 -7 -32 -19 0 -17 25 -49
38 -49 4 0 19 -21 32 -47 14 -27 28 -49 33 -51 4 -2 7 -7 7 -12 0 -11 175
-303 285 -475 17 -27 80 -126 140 -220 123 -193 157 -245 160 -245 2 0 23 35
47 78 25 42 71 122 103 177 32 55 67 116 78 135 11 19 28 47 38 62 11 14 19
29 19 32 0 3 29 54 64 113 60 102 179 308 253 436 18 33 33 62 33 66 0 3 -166
6 -369 6 l-370 0 32 -57 c21 -40 38 -58 52 -59 11 -1 50 -1 87 -1 38 0 70 -3
73 -7 2 -5 -9 -29 -25 -55 -17 -26 -30 -49 -30 -51 0 -16 -104 -175 -110 -168
-16 16 -220 372 -220 382 0 12 -6 13 -92 15 l-57 1 31 -55 c18 -30 74 -126
125 -214 51 -87 93 -163 93 -167 0 -5 5 -9 12 -9 6 0 8 -3 5 -6 -3 -4 3 -18
13 -32 11 -13 20 -33 20 -43 0 -21 -57 -119 -70 -119 -9 0 -240 394 -240 409
0 5 -4 11 -8 13 -5 2 -35 49 -67 105 -31 56 -68 110 -82 118 -25 17 -58 27
-65 20z m1052 -140 c5 -3 -3 -27 -17 -53 -14 -26 -31 -56 -37 -67 -6 -11 -16
-27 -22 -35 -6 -8 -24 -37 -39 -65 -35 -65 -161 -280 -244 -420 -36 -60 -64
-112 -62 -114 1 -2 -5 -9 -14 -14 -18 -10 -35 5 -35 31 0 6 -4 12 -8 12 -5 0
-16 16 -25 35 l-17 35 178 308 c98 169 185 317 192 328 11 18 24 22 77 23 36
1 68 -1 73 -4z"/>
</g>
</svg>
